<svg width="28" height="30" viewBox="0 0 28 30" fill="none" xmlns="http://www.w3.org/2000/svg">
<path d="M13.9962 10.3944C11.4255 10.3944 9.32767 12.5274 9.32767 15.1412C9.32767 17.755 11.4255 19.8881 13.9962 19.8881C16.5669 19.8881 18.6648 17.755 18.6648 15.1412C18.6648 12.5274 16.5669 10.3944 13.9962 10.3944ZM27.9984 15.1412C27.9984 13.1755 28.0159 11.2276 27.9074 9.26552C27.7988 6.98646 27.2875 4.9638 25.6484 3.29724C24.0058 1.62712 22.02 1.11078 19.7785 1.00038C17.8453 0.889992 15.9295 0.907797 13.9997 0.907797C12.0665 0.907797 10.1507 0.889992 8.22094 1.00038C5.97947 1.11078 3.99016 1.63068 2.35109 3.29724C0.708507 4.96736 0.200673 6.98646 0.0921015 9.26552C-0.0164698 11.2312 0.00104174 13.1791 0.00104174 15.1412C0.00104174 17.1033 -0.0164698 19.0548 0.0921015 21.0169C0.200673 23.2959 0.712009 25.3186 2.35109 26.9852C3.99367 28.6553 5.97947 29.1716 8.22094 29.282C10.1542 29.3924 12.07 29.3746 13.9997 29.3746C15.933 29.3746 17.8488 29.3924 19.7785 29.282C22.02 29.1716 24.0093 28.6517 25.6484 26.9852C27.291 25.3151 27.7988 23.2959 27.9074 21.0169C28.0195 19.0548 27.9984 17.1069 27.9984 15.1412ZM13.9962 22.4449C10.0211 22.4449 6.81302 19.183 6.81302 15.1412C6.81302 11.0994 10.0211 7.83755 13.9962 7.83755C17.9713 7.83755 21.1795 11.0994 21.1795 15.1412C21.1795 19.183 17.9713 22.4449 13.9962 22.4449ZM21.4736 9.24415C20.5455 9.24415 19.796 8.48209 19.796 7.53842C19.796 6.59475 20.5455 5.83269 21.4736 5.83269C22.4018 5.83269 23.1513 6.59475 23.1513 7.53842C23.1515 7.7625 23.1083 7.98443 23.0241 8.19151C22.9399 8.39859 22.8163 8.58674 22.6605 8.74518C22.5047 8.90363 22.3196 9.02926 22.116 9.11489C21.9123 9.20051 21.694 9.24443 21.4736 9.24415Z" fill="white"/>
</svg>
