<svg width="29" height="30" viewBox="0 0 29 30" fill="none" xmlns="http://www.w3.org/2000/svg">
<path fill-rule="evenodd" clip-rule="evenodd" d="M0.892334 3.28519C0.892334 2.65439 1.13879 2.04942 1.57749 1.60337C2.01619 1.15733 2.61119 0.906741 3.23161 0.906741H26.5505C26.858 0.906231 27.1625 0.967384 27.4467 1.0867C27.7309 1.20602 27.9891 1.38115 28.2066 1.60208C28.4242 1.823 28.5967 2.08539 28.7144 2.3742C28.832 2.66301 28.8925 2.97258 28.8923 3.28519V26.9946C28.8927 27.3073 28.8324 27.617 28.7149 27.9059C28.5974 28.1949 28.425 28.4574 28.2076 28.6786C27.9902 28.8997 27.7321 29.0751 27.448 29.1948C27.1638 29.3144 26.8593 29.3758 26.5518 29.3757H3.23161C2.9243 29.3757 2.62001 29.3141 2.33611 29.1945C2.05222 29.0749 1.79428 28.8996 1.57704 28.6786C1.3598 28.4576 1.18752 28.1952 1.07004 27.9065C0.952551 27.6178 0.892167 27.3084 0.892334 26.9959V3.28519ZM11.9752 11.7612H15.7667V13.6971C16.314 12.5842 17.714 11.5826 19.8178 11.5826C23.8511 11.5826 24.8069 13.7993 24.8069 17.8665V25.4004H20.7252V18.793C20.7252 16.4767 20.178 15.1697 18.7882 15.1697C16.86 15.1697 16.0582 16.5789 16.0582 18.793V25.4004H11.9752V11.7612ZM4.97524 25.2231H9.05815V11.5826H4.97524V25.2218V25.2231ZM9.64233 7.13367C9.65003 7.48911 9.58782 7.84253 9.45937 8.1732C9.33091 8.50386 9.13878 8.80511 8.89426 9.05925C8.64975 9.3134 8.35777 9.51532 8.03546 9.65318C7.71315 9.79104 7.367 9.86206 7.01733 9.86206C6.66767 9.86206 6.32152 9.79104 5.99921 9.65318C5.6769 9.51532 5.38492 9.3134 5.1404 9.05925C4.89589 8.80511 4.70376 8.50386 4.5753 8.1732C4.44684 7.84253 4.38464 7.48911 4.39233 7.13367C4.40744 6.436 4.69064 5.77207 5.18128 5.28408C5.67192 4.79609 6.33098 4.52284 7.01733 4.52284C7.70369 4.52284 8.36275 4.79609 8.85339 5.28408C9.34403 5.77207 9.62722 6.436 9.64233 7.13367Z" fill="white"/>
</svg>
