<svg width="33" height="28" viewBox="0 0 33 28" fill="none" xmlns="http://www.w3.org/2000/svg">
<path d="M32.8923 4.10936C31.7156 4.63926 30.4514 4.99729 29.1224 5.15913C30.4937 4.32532 31.5196 3.013 32.0087 1.46704C30.7204 2.24468 29.3103 2.79206 27.8399 3.08537C26.8511 2.01249 25.5414 1.30137 24.1141 1.06242C22.6869 0.823458 21.2219 1.07003 19.9467 1.76385C18.6714 2.45768 17.6573 3.55993 17.0617 4.89948C16.4661 6.23904 16.3223 7.74094 16.6528 9.17202C14.0422 9.03883 11.4885 8.34932 9.15718 7.14825C6.82588 5.94719 4.76915 4.2614 3.12047 2.2003C2.55674 3.18848 2.2326 4.33421 2.2326 5.5544C2.23197 6.65286 2.49816 7.73449 3.00755 8.70332C3.51694 9.67216 4.25379 10.4983 5.15271 11.1083C4.1102 11.0746 3.09069 10.7883 2.17904 10.2733V10.3593C2.17894 11.8999 2.70336 13.3931 3.66331 14.5856C4.62327 15.778 5.95964 16.5962 7.44567 16.9014C6.47857 17.1673 5.46464 17.2065 4.48046 17.0159C4.89973 18.3415 5.71643 19.5007 6.81622 20.3313C7.91601 21.1618 9.24384 21.622 10.6138 21.6475C8.28821 23.5027 5.41609 24.5091 2.4595 24.5047C1.93577 24.5048 1.41248 24.4737 0.892334 24.4116C3.89345 26.3724 7.38696 27.4131 10.9549 27.4091C23.0327 27.4091 29.6354 17.2436 29.6354 8.4273C29.6354 8.14087 29.6284 7.85158 29.6157 7.56515C30.9 6.62132 32.0086 5.45257 32.8895 4.11366L32.8923 4.10936Z" fill="white"/>
</svg>
