<svg width="28" height="22" viewBox="0 0 28 22" fill="none" xmlns="http://www.w3.org/2000/svg">
<path d="M27.3084 3.73523C27.1505 3.10909 26.8428 2.54222 26.4183 2.09487C25.9817 1.63376 25.4466 1.30392 24.8635 1.13648C22.6812 0.497128 13.9381 0.497128 13.9381 0.497128C10.2932 0.451033 6.64918 0.653769 3.02664 1.10419C2.44352 1.284 1.90942 1.62121 1.47184 2.08583C1.04189 2.54565 0.730471 3.11267 0.567787 3.73394C0.176989 6.07404 -0.0128878 8.45011 0.000717184 10.8301C-0.0132271 13.208 0.176183 15.5833 0.567787 17.9263C0.726984 18.545 1.03725 19.1095 1.46836 19.5654C1.89947 20.0213 2.43633 20.3507 3.02664 20.5251C5.23798 21.1631 13.9381 21.1631 13.9381 21.1631C17.5876 21.2093 21.2363 21.0066 24.8635 20.5561C25.4466 20.3886 25.9817 20.0588 26.4183 19.5977C26.8427 19.1504 27.1499 18.5835 27.3072 17.9573C27.7082 15.6181 27.9032 13.2411 27.8894 10.8598C27.9195 8.46853 27.7248 6.08026 27.3084 3.73394V3.73523ZM11.1585 15.2527V6.4089L18.4328 10.8314L11.1585 15.2527Z" fill="white"/>
</svg>
