<?xml version="1.0" encoding="UTF-8" standalone="no"?>
<svg
   width="223"
   height="80"
   version="1.1"
   id="svg21"
   sodipodi:docname="Logo.svg"
   inkscape:version="1.1.1 (c3084ef, 2021-09-22)"
   xmlns:inkscape="http://www.inkscape.org/namespaces/inkscape"
   xmlns:sodipodi="http://sodipodi.sourceforge.net/DTD/sodipodi-0.dtd"
   xmlns="http://www.w3.org/2000/svg"
   xmlns:svg="http://www.w3.org/2000/svg">
  <defs
     id="defs25" />
  <sodipodi:namedview
     id="namedview23"
     pagecolor="#ffffff"
     bordercolor="#666666"
     borderopacity="1.0"
     inkscape:pageshadow="2"
     inkscape:pageopacity="0.0"
     inkscape:pagecheckerboard="0"
     showgrid="false"
     showguides="true"
     inkscape:guide-bbox="true"
     height="80px"
     inkscape:zoom="1.1237174"
     inkscape:cx="-84.985778"
     inkscape:cy="92.994909"
     inkscape:window-width="1920"
     inkscape:window-height="1027"
     inkscape:window-x="1440"
     inkscape:window-y="25"
     inkscape:window-maximized="1"
     inkscape:current-layer="svg21" />
  <style
     type="text/css"
     id="style2">.st0{fill:#2864AE;}
	.st1{fill:#48AD45;}
	.st2{fill:#FABD14;}</style>
  <g
     id="g19"
     transform="matrix(0.39352301,0,0,0.39352301,2.300203,6.0000018)">
    <title
       id="title9">Layer 1</title>
    <g
       id="Grupo_17695">
      <g
         id="Grupo_17695-2">
        <path
           d="m 53.424995,111.72 c 11.77,0 21.15,-9.93 21.15,-24.629997 0.91,-11.54 -7.7,-21.63 -19.24,-22.55 -0.63,-0.05 -1.27,-0.07 -1.91,-0.06 -12.3,0 -18.74,10.85 -18.74,23.9 -0.01,14.889997 8.81,23.339997 18.74,23.339997 z M 106.545,125.87 c 0,39.33 -19.100005,52.01 -57.710005,52.01 -12.44,0.03 -24.81,-2.01 -36.58,-6.06 l 1.65,-26.11 c 9.93,5.37 21.07,8.09 32.36,7.91 19.12,0 29.41,-9 29.41,-27.75 v -5.16 h -0.37 c -7.2,10.62 -19.35,16.8 -32.17,16.36 -26.29,0 -42.64,-19.84 -42.64,-48.169997 0,-28.5 13.41,-49.81 43.19,-49.81 13.58,0.11 26.03,7.57 32.53,19.49 h 0.38 v -17.26 H 106.54499 V 125.86 Z"
           class="st0"
           id="Caminho_4108" />
        <path
           d="M 239.93499,136.96 H 276.745 l 34.61,-95.169997 h -32.15 L 259.685,109.59 h -0.36 l -19.37,-67.799997 h -34.7 z"
           class="st1"
           id="Caminho_4109" />
        <path
           d="m 183.75499,89.400003 c 0,-14.24 -6.21,-26.84 -21.37,-26.84 -15.16,0 -21.36,12.6 -21.36,26.84 0,14.059997 6.21,26.659997 21.36,26.659997 15.15,0 21.37,-12.6 21.37,-26.659997 z m -76.68999,0 c 0,-31.59 23.90999,-49.83 55.31999,-49.83 31.41,0 55.32,18.26 55.32,49.83 0,31.409997 -23.91,49.659997 -55.32,49.659997 -31.41,0 -55.31999,-18.25 -55.31999,-49.659997 z"
           class="st2"
           id="Caminho_4110" />
        <path
           d="m 315.07499,123.51 c 0,8.62 -6.99,15.6 -15.61,15.6 -8.62,0 -15.6,-6.99 -15.6,-15.61 0,-8.61 6.98,-15.59 15.6,-15.6 8.61,-0.01 15.6,6.97 15.61,15.58 0,0.01 0,0.02 0,0.03 z"
           class="st0"
           id="Caminho_4111" />
        <path
           d="m 371.01499,64.840003 c -12.05,0 -20.08999,10.58 -20.08999,24.83 0,13.879997 9.13999,24.299997 20.08999,24.299997 12.42001,0 19.91001,-10.42 19.91001,-25.579997 0,-12.59 -7.12,-23.55 -19.91001,-23.55 z M 318.055,3e-6 h 33.07 v 54.07 h 0.37 c 7.91,-9.84 20.1,-15.22 32.69999,-14.42 26.30001,0 40.71,25.01 40.71,48.03 0,28.119997 -15.15,51.509997 -43.47,51.509997 -13.7,0.53 -26.47,-6.96 -32.69,-19.18 h -0.37 v 17 h -30.34 V 0.010003 h 0.02 z"
           class="st0"
           id="Caminho_4112" />
        <path
           d="m 492.83499,68.130003 c -3.64,-0.91 -7.39,-1.28 -11.14,-1.09 -15.33999,0 -23.91,11.14 -23.91,29.77 V 137 h -32.89 V 41.790003 H 454.875 v 17.54 h 0.37 c 4.14999,-11.95 15.48,-19.89 28.12,-19.72 3.74,0.06 7.45999,0.43 11.13999,1.09 z"
           class="st2"
           id="Caminho_4113" />
      </g>
    </g>
  </g>
  <g
     id="g7">
    <title
       id="title4">background</title>
    <rect
       fill="none"
       id="canvas_background"
       height="180"
       width="497"
       y="-1"
       x="-1" />
  </g>
</svg>
